# xmcd
#
# Track frame offsets:
#	150
#	13112
#	27521
#	46471
#	58642
#	74064
#	88620
#	103408
#	128272
#	139579
#
# Disc length: 2023 seconds
#
# Revision: 1
# Processed by: cddbd v1.5PL3 Copyright (c) Steve Scherf et al.
# Submitted via: audiograbber 1.83.01
#
DISCID=8c07e50a
DTITLE=Trinity Quartet - The Great Commission
DYEAR=2004
DGENRE=Country
TTITLE0=Looking For That Blessed Hope
TTITLE1=Hands Of Justice
TTITLE2=It Must Have Been You
TTITLE3=Its My Light
TTITLE4=Listen With Your Heart
TTITLE5=The Old Man Is Back In Town
TTITLE6=He's The One
TTITLE7=A Lamb For A House
TTITLE8=Shoulder To Shoulder
TTITLE9=The Great Commission
EXTD=
EXTT0=
EXTT1=
EXTT2=
EXTT3=
EXTT4=
EXTT5=
EXTT6=
EXTT7=
EXTT8=
EXTT9=
PLAYORDER=
